<?xml version="1.0" encoding="utf-8"?>
<!-- Generator: Adobe Illustrator 19.0.0, SVG Export Plug-In . SVG Version: 6.00 Build 0)  -->
<svg version="1.1" id="Layer_1" xmlns="http://www.w3.org/2000/svg" xmlns:xlink="http://www.w3.org/1999/xlink" x="0px" y="0px"
	 viewBox="0 0 300 100" style="enable-background:new 0 0 300 100;" xml:space="preserve">
<style type="text/css">
	.st0{fill:#F0F0F0;}
	.st1{fill:#ED5B3E;}
</style>
<g id="XMLID_206_">
	<g id="XMLID_1_">
		<path id="XMLID_2_" class="st0" d="M30,67.4c-0.4-0.2-0.6-0.8-0.4-1.3l1.7-3.3c0.2-0.4,0.6-0.6,1-0.6c0.2,0,0.4,0.1,0.6,0.2
			c3,1.8,6.5,3.2,10.5,3.2c5.5,0,9-2.5,9-7.1c0-4.3-3.5-5.5-9.4-7.8c-8.3-3.1-13.6-5.7-13.6-13.7c0-8.6,6.4-12.4,14.4-12.4
			c4.5,0,9,1.3,12.5,3.6c0.4,0.2,0.6,0.8,0.3,1.3l-1.6,3.2c-0.2,0.6-0.9,0.9-1.5,0.5c-3.1-1.8-6.3-3-9.8-3c-5.2,0-8.2,2.2-8.2,6.5
			c0,5.3,4.3,6.5,9.4,8.3c7.5,2.7,13.6,5.1,13.6,13.1c0,8.2-6.2,13.2-15.5,13.2C38.4,71.1,33.4,69.8,30,67.4z"/>
		<path id="XMLID_4_" class="st0" d="M77.6,58.2v-27h-5.2c-0.6,0-1.1-0.5-1.1-1.1v-3.6c0-0.6,0.5-1.1,1.1-1.1h5.2v-8.3
			c0-0.6,0.5-1.1,1.1-1.1h4c0.6,0,1.1,0.5,1.1,1.1v8.3h14c0.6,0,1.1,0.5,1.1,1.1v3.6c0,0.6-0.5,1.1-1.1,1.1h-14v26.2
			c0,4.1,2.7,6.8,6.7,6.9l7.2,0.1c0.6,0,1.1,0.5,1.1,1.1v3.6c0,0.6-0.5,1.1-1.1,1.1h-7.9C81.8,70.3,77.6,64.8,77.6,58.2z"/>
		<path id="XMLID_6_" class="st0" d="M122,67.5V31.3h-8.2c-0.6,0-1.1-0.5-1.1-1.1v-3.6c0-0.6,0.5-1.1,1.1-1.1h11.6
			c1.6,0,2.9,1.3,2.9,2.9v36.1h8.2c0.6,0,1.1,0.5,1.1,1.1v3.6c0,0.6-0.5,1.1-1.1,1.1h-11.5C123.3,70.3,122,69,122,67.5z M122.1,18.2
			v-6.9c0-0.6,0.5-1.1,1.1-1.1h3.8c0.6,0,1.1,0.5,1.1,1.1v6.9c0,0.6-0.5,1.1-1.1,1.1h-3.8C122.6,19.3,122.1,18.8,122.1,18.2z"/>
		<path id="XMLID_10_" class="st0" d="M161.6,69.3l-14.9-42.1c-0.3-1,0.2-1.7,1.2-1.7h3.6c0.6,0,1.3,0.4,1.5,1l12.5,36.1l12.3-36.1
			c0.2-0.6,0.9-1,1.5-1h3.5c1,0,1.5,0.8,1.2,1.7l-14.9,42.1c-0.2,0.6-0.9,1-1.5,1h-4.5C162.5,70.3,161.8,69.9,161.6,69.3z"/>
		<path id="XMLID_13_" class="st0" d="M196.8,53V41.7c0-9.6,7.7-17.3,17.2-17.3c9.5,0,17.2,7.7,17.2,17.3v5.4c0,1.6-1.3,2.9-2.9,2.9
			H203v3.5c0,6.1,4.9,11,11,11h11.5c0.6,0,1.1,0.5,1.1,1.1v3.6c0,0.6-0.5,1.1-1.1,1.1H214C204.5,70.3,196.8,62.6,196.8,53z
			 M225,44.2v-2.9c0-6.1-4.9-11-11-11c-6.1,0-11,4.9-11,11v2.9H225z"/>
		<path id="XMLID_16_" class="st0" d="M248.9,69.1V26.6c0-0.6,0.5-1.1,1.1-1.1h4c0.6,0,1.1,0.5,1.1,1.1v4.4
			c2.8-4.4,7.4-6.6,12.8-6.6c9,0,15.1,6,15.1,15v29.8c0,0.6-0.5,1.1-1.1,1.1h-4c-0.6,0-1.1-0.5-1.1-1.1V40.5c0-6.9-4-10.4-9.8-10.4
			c-6.9,0-11.8,4.8-11.8,13.1v25.9c0,0.6-0.5,1.1-1.1,1.1h-4C249.3,70.2,248.9,69.8,248.9,69.1z"/>
	</g>
	<circle id="XMLID_207_" class="st1" cx="11.7" cy="64" r="6.5"/>
</g>
</svg>
